<svg width="80" height="80" viewBox="0 0 80 80" fill="none" xmlns="http://www.w3.org/2000/svg">
<path d="M0 15C0 6.71573 6.71573 0 15 0H65C73.2843 0 80 6.71573 80 15V65C80 73.2843 73.2843 80 65 80H15C6.71573 80 0 73.2843 0 65V15Z" fill="#F5F5F5"/>
<path d="M0 13.3333C0 5.96954 5.96954 0 13.3333 0H66.6667C74.0305 0 80 5.96954 80 13.3333V66.6667C80 74.0305 74.0305 80 66.6667 80H13.3333C5.96954 80 0 74.0305 0 66.6667V13.3333Z" fill="#F5F5F5"/>
<path d="M58.0358 27.496C58.0358 28.734 60.9032 32.139 60.9032 32.139C60.9032 32.139 62.2222 33.6241 62.2222 34.7383C62.2222 35.9817 61.0367 37.5856 59.6416 37.5856C57.0876 37.5858 56.3301 41.0383 58.6575 42.0898C58.856 42.1795 59.0505 42.2672 59.2401 42.3525C59.9283 42.662 60.4193 42.6453 61.0179 43.0953C61.7591 43.6524 62.1649 44.0443 62.1649 44.8903V59.4986C62.1649 60.2414 61.5914 60.9223 61.0753 61.3556C60.4586 61.8734 59.9857 62.2222 59.1828 62.2222H20.3011C19.5556 62.2222 17.7778 61.6032 17.7778 59.3129C17.7778 56.5275 22.0215 53.5552 22.0215 52.1939C22.0215 50.8327 17.7778 47.7996 17.7778 44.8903C17.7778 44.1539 17.8351 43.7761 18.466 43.1572C19.0968 42.5382 20.3011 42.5382 20.3011 42.5382H20.9289C23.9307 42.5382 24.7939 37.5862 21.7921 37.5862H20.2437C19.957 37.5862 19.0262 37.0908 18.6953 36.7813C18.3645 36.4718 17.7778 35.7909 17.7778 34.8005C17.7778 29.6009 17.8351 21.554 17.8351 20.3162C17.8351 19.5367 18.1109 19.0417 18.638 18.5209C19.1258 18.039 19.63 17.7784 20.3011 17.7783C21.2337 17.7782 45.9773 17.7779 56.0873 17.7778L60.2724 17.7778C61.3252 17.7778 62.2222 18.8923 62.2222 20.316C62.2222 21.7397 61.0179 23.0392 61.0179 23.0392C61.0179 23.0392 58.0358 26.3818 58.0358 27.496Z" fill="#F5F5F5"/>
<path d="M46.2222 32.8889C46.2222 36.8162 43.2375 40 39.5556 40C35.8737 40 32.8889 36.8162 32.8889 32.8889C32.8889 28.9615 35.8737 25.7778 39.5556 25.7778C43.2375 25.7778 46.2222 28.9615 46.2222 32.8889Z" fill="#F5F5F5"/>
<path d="M58.0358 27.4961C58.0358 28.7341 60.9032 32.1391 60.9032 32.1391C60.9032 32.1391 62.2222 33.6241 62.2222 34.7383C62.2222 35.9817 61.0367 37.5857 59.6416 37.5857L48.8602 37.5862C48.8602 37.5862 55.1681 40.5211 59.2401 42.3525C59.9283 42.662 60.4193 42.6454 61.0179 43.0953C61.7591 43.6524 62.1649 44.0443 62.1649 44.8904V59.4987C62.1649 60.2415 61.5914 60.9224 61.0753 61.3557C60.4586 61.8734 59.9857 62.2223 59.1828 62.2223H20.3011C19.5556 62.2223 17.7778 61.6033 17.7778 59.313C17.7778 56.5275 22.0215 53.5552 22.0215 52.194C22.0215 50.8328 17.7778 47.7997 17.7778 44.8904C17.7778 44.154 17.8351 43.7762 18.4659 43.1572C19.0968 42.5382 20.3011 42.5382 20.3011 42.5382H35.6702C35.6702 42.5382 22.6129 37.5862 21.7921 37.5862H20.2437C19.957 37.5862 19.0262 37.0908 18.6953 36.7814C18.3645 36.4719 17.7778 35.791 17.7778 34.8006C17.7778 29.601 17.8351 21.5541 17.8351 20.3163C17.8351 19.5367 18.1109 19.0417 18.638 18.521C19.1258 18.039 19.6299 17.7785 20.3011 17.7784C21.2337 17.7782 45.9773 17.778 56.0873 17.7779L60.2724 17.7778C61.3252 17.7778 62.2222 18.8924 62.2222 20.3161C62.2222 21.7398 61.0179 23.0393 61.0179 23.0393C61.0179 23.0393 58.0358 26.3819 58.0358 27.4961Z" stroke="#30475E" stroke-width="5" stroke-linejoin="round"/>
<path d="M39.044 47.1111C28.4658 47.1111 29.3516 61.3333 29.3516 61.3333H49.7778C49.7778 61.3333 48.6563 47.1111 39.044 47.1111Z" stroke="#30475E" stroke-width="5" stroke-linejoin="round"/>
<path d="M39.5559 28.2778C41.7074 28.278 43.7219 30.1882 43.7219 32.8892C43.7218 35.59 41.7073 37.5003 39.5559 37.5005C37.4043 37.5005 35.389 35.5901 35.3889 32.8892C35.3889 30.1881 37.4042 28.2778 39.5559 28.2778Z" stroke="#30475E" stroke-width="5"/>
</svg>
