<svg width="80" height="80" viewBox="0 0 80 80" fill="none" xmlns="http://www.w3.org/2000/svg">
<rect width="80" height="80" rx="15" fill="#F5F5F5"/>
<path d="M18.967 13.438C16.9515 13.5948 15.2198 15.7909 14.2125 18.2484C13.2771 20.5307 13.334 21.072 13.334 23.268C13.334 25.0458 14.0058 25.5687 15.1944 25.5687C16.7965 25.5687 22.7395 25.5687 22.7395 25.5687M18.967 13.438C21.0858 13.438 52.9717 13.3334 52.9717 13.3334C56.5892 13.3334 57.7262 16.2092 57.7262 19.1373C57.7262 19.1373 57.7262 41.5724 57.7262 55.9478M18.967 13.438C23.1013 13.4277 22.7395 18.5099 22.7395 22.0131V25.5687M57.7262 55.9478C60.5113 55.9478 62.2222 55.9478 64.8579 55.9478C66.6666 55.9478 66.6666 57.4641 66.6666 57.4641V60.9151C66.6666 64.2092 64.8579 66.6667 60.7752 66.6667C60.7752 66.6667 41.2156 66.6667 28.6826 66.6667M57.7262 55.9478C34.2123 55.9478 33.9539 55.5295 33.9539 57.2027C33.9539 61.6225 32.2485 66.6667 28.6826 66.6667M28.6826 66.6667C24.8067 66.6667 22.6362 62.902 22.6362 58.1961C22.6362 46.9543 22.7395 25.5687 22.7395 25.5687" stroke="#30475E" stroke-width="5" stroke-linejoin="round"/>
<path d="M29.8196 21.7516H50.3878" stroke="#30475E" stroke-width="5" stroke-linecap="round" stroke-linejoin="round"/>
<path d="M29.8196 28.0262H50.3878" stroke="#30475E" stroke-width="5" stroke-linecap="round" stroke-linejoin="round"/>
<path d="M29.8196 34.9281H50.3878" stroke="#30475E" stroke-width="5" stroke-linecap="round" stroke-linejoin="round"/>
<path d="M29.8196 41.5165H50.3878" stroke="#30475E" stroke-width="5" stroke-linecap="round" stroke-linejoin="round"/>
<path d="M29.8196 48.2092H50.3878" stroke="#30475E" stroke-width="5" stroke-linecap="round" stroke-linejoin="round"/>
</svg>
